<svg width="116" height="104" viewBox="0 0 116 104" fill="none" xmlns="http://www.w3.org/2000/svg">
<rect y="4" width="12" height="12" fill="white"/>
<rect x="44" y="2" width="16" height="16" fill="white"/>
<rect x="69" y="1" width="18" height="18" fill="white"/>
<rect x="96" width="20" height="20" fill="white"/>
<rect x="21" y="3" width="14" height="14" fill="white"/>
<rect y="32" width="12" height="12" fill="white"/>
<rect x="44" y="30" width="16" height="16" fill="white"/>
<rect x="69" y="29" width="18" height="18" fill="white"/>
<rect x="96" y="28" width="20" height="20" fill="white"/>
<rect x="21" y="31" width="14" height="14" fill="white"/>
<rect y="60" width="12" height="12" fill="white"/>
<rect x="44" y="58" width="16" height="16" fill="white"/>
<rect x="69" y="57" width="18" height="18" fill="white"/>
<rect x="96" y="56" width="20" height="20" fill="white"/>
<rect x="21" y="59" width="14" height="14" fill="white"/>
<rect y="88" width="12" height="12" fill="white"/>
<rect x="44" y="86" width="16" height="16" fill="white"/>
<rect x="69" y="85" width="18" height="18" fill="white"/>
<rect x="96" y="84" width="20" height="20" fill="white"/>
<rect x="21" y="87" width="14" height="14" fill="white"/>
</svg>
